# xmcd
#
# Track frame offsets:
#	150
#	20832
#	49839
#	71040
#	103122
#	131888
#	157437
#	184133
#	207362
#	242655
#
# Disc length: 3472 seconds
#
# Revision: 0
# Processed by: cddbd v1.4PL0 Copyright (c) Steve Scherf et al.
# Submitted via: EasyCDDAExtractor 4.6.0.1
#
DISCID=9e0d8e0a
DTITLE=Lubos Andrst Blues Band and Ramblin Rex USA - Blues Time
DYEAR=1998
DGENRE=blues
TTITLE0=Checkin' Up On My Baby (Sonny Boy Williamson)
TTITLE1=Why I Sing The Blues (B.B. King - Dave Clark)
TTITLE2=They Call Me Ramblin (Ramblin Rex)
TTITLE3=Thrill Is Gone (R. Hawkins - R. Damell)
TTITLE4=I've Got My Mojo Working (Traditional)
TTITLE5=There You Go (Lubos Andrst - Ramblin Rex)
TTITLE6=Blues Time (Ramblin Rex)
TTITLE7=King Bee (Slim Harpo)
TTITLE8=How Blue Can You Get (Leonard Feather)
TTITLE9=Take It Easy (Lubos Andrst)
EXTD=
EXTT0=
EXTT1=
EXTT2=
EXTT3=
EXTT4=
EXTT5=
EXTT6=
EXTT7=
EXTT8=
EXTT9=
PLAYORDER=
